<?xml version="1.0" encoding="UTF-8"?>
<!DOCTYPE svg PUBLIC "-//W3C//DTD SVG 1.1//EN" "http://www.w3.org/Graphics/SVG/1.1/DTD/svg11.dtd">
<!-- Creator: CorelDRAW X7 -->
<svg xmlns="http://www.w3.org/2000/svg" xml:space="preserve" width="1080px" height="1080px" version="1.1" style="shape-rendering:geometricPrecision; text-rendering:geometricPrecision; image-rendering:optimizeQuality; fill-rule:evenodd; clip-rule:evenodd"
viewBox="0 0 1080 1080"
 xmlns:xlink="http://www.w3.org/1999/xlink">
 <defs>
  <style type="text/css">
   <![CDATA[
    .fil0 {fill:black;fill-rule:nonzero}
   ]]>
  </style>
 </defs>
 <g id="Layer_x0020_1">
  <metadata id="CorelCorpID_0Corel-Layer"/>
  <g id="_605645424">
   <path class="fil0" d="M187 533l4 0c5,0 8,-1 10,-2 2,-1 2,-3 2,-5 0,-3 0,-5 -2,-6 -2,-1 -5,-2 -10,-2l-4 0 0 15zm-18 43l0 -72 19 0c9,0 14,0 17,1 4,0 6,1 9,3 2,1 4,3 6,5 1,3 2,6 2,9 0,4 -1,7 -3,10 -2,2 -6,4 -10,5 5,1 9,2 12,6 3,3 4,7 4,12 0,4 -1,7 -2,10 -2,3 -4,5 -7,7 -3,1 -6,2 -9,3 -4,0 -10,1 -18,1l-20 0zm18 -15l7 0c4,0 8,-1 10,-2 2,-1 2,-3 2,-5 0,-3 0,-6 -2,-7 -2,-1 -5,-2 -10,-2l-7 0 0 16z"/>
   <polygon id="1" class="fil0" points="232,576 232,504 251,504 251,576 "/>
   <path id="2" class="fil0" d="M343 576l-18 0 -4 -31c0,-2 -1,-5 -1,-8 0,-2 0,-5 -1,-8 0,3 -1,7 -2,11 -1,1 -1,2 -1,2l-10 34 -13 0 -9 -34c-1,0 -1,-1 -1,-2 -1,-4 -2,-8 -3,-11 0,2 0,5 0,8 -1,2 -1,5 -1,8l-4 31 -19 0 11 -72 20 0 11 37c0,0 0,1 0,1 1,4 2,6 2,9 0,-2 0,-3 1,-4 0,-2 0,-4 1,-6l11 -37 19 0 11 72z"/>
   <path id="3" class="fil0" d="M351 553c3,3 6,5 9,7 3,2 5,2 8,2 3,0 5,0 7,-2 1,-1 2,-3 2,-5 0,-2 -1,-4 -2,-6 -1,-1 -5,-2 -10,-4 -7,-1 -12,-4 -15,-7 -3,-3 -4,-7 -4,-12 0,-7 2,-13 7,-17 4,-4 10,-7 18,-7 4,0 7,1 11,2 3,1 7,3 10,5l-6 14c-2,-2 -5,-3 -7,-4 -2,-1 -5,-2 -7,-2 -2,0 -4,1 -6,2 -1,1 -2,2 -2,4 0,2 1,3 2,4 1,2 4,3 7,4l1 0c8,2 14,4 16,7 2,2 3,4 4,6 1,3 1,5 1,8 0,8 -2,14 -7,19 -5,4 -12,7 -20,7 -5,0 -10,-1 -14,-3 -4,-2 -8,-4 -12,-8l9 -14z"/>
   <path id="4" class="fil0" d="M400 576l0 -72 15 0c11,0 19,1 24,2 5,1 9,2 12,5 5,3 8,7 10,12 3,5 4,11 4,17 0,6 -1,12 -4,17 -2,5 -5,9 -10,12 -3,2 -7,4 -12,5 -4,1 -11,2 -20,2l-4 0 -15 0zm20 -16l3 0c8,0 13,-2 17,-5 3,-3 5,-8 5,-15 0,-7 -2,-12 -5,-15 -4,-3 -9,-5 -17,-5l-3 0 0 40z"/>
   <path id="5" class="fil0" d="M471 576l0 -72 21 0c8,0 13,1 16,1 4,1 6,2 9,4 2,2 4,4 6,7 1,3 2,7 2,10 0,6 -2,10 -4,14 -3,3 -7,6 -12,7l19 29 -22 0 -16 -28 0 28 -19 0zm19 -38l3 0c4,0 8,-1 9,-2 2,-2 3,-4 3,-7 0,-4 -1,-6 -2,-8 -2,-1 -5,-2 -9,-2l-4 0 0 19z"/>
   <path id="6" class="fil0" d="M529 504l20 0 0 35c0,5 0,9 0,11 0,2 1,4 2,6 0,1 2,3 3,4 2,1 5,1 7,1 3,0 5,0 7,-1 2,-1 3,-3 4,-4 1,-2 1,-4 1,-6 1,-2 1,-6 1,-11l0 -5 0 -30 19 0 0 38c0,8 0,14 -1,17 -1,4 -3,7 -5,10 -3,3 -6,5 -10,6 -4,2 -10,3 -16,3 -6,0 -11,-1 -15,-3 -5,-1 -8,-3 -10,-6 -3,-3 -4,-6 -5,-10 -1,-3 -2,-9 -2,-17l0 -7 0 -31z"/>
   <path id="7" class="fil0" d="M684 576l-18 0 -4 -31c-1,-2 -1,-5 -1,-8 0,-2 -1,-5 -1,-8 0,3 -1,7 -2,11 -1,1 -1,2 -1,2l-10 34 -13 0 -9 -34c-1,0 -1,-1 -1,-2 -1,-4 -2,-8 -3,-11 0,2 0,5 0,8 -1,2 -1,5 -1,8l-5 31 -18 0 11 -72 20 0 10 37c1,0 1,1 1,1 1,4 1,6 2,9 0,-2 0,-3 0,-4 1,-2 1,-4 2,-6l11 -37 19 0 11 72z"/>
   <polygon id="8" class="fil0" points="745,576 682,576 718,520 689,520 689,504 749,504 713,560 745,560 "/>
   <polygon class="fil0" points="765,570 765,508 775,508 775,561 798,561 798,570 "/>
   <polygon id="1" class="fil0" points="804,570 804,508 814,508 814,570 "/>
   <path id="2" class="fil0" d="M845 572l-27 -64 10 0 14 33c1,2 1,3 2,5 1,2 1,3 1,5 1,-2 1,-3 2,-5 0,-2 1,-3 2,-5l13 -33 11 0 -28 64z"/>
   <polygon id="3" class="fil0" points="877,570 877,508 911,508 911,516 887,516 887,532 911,532 911,541 887,541 887,561 911,561 911,570 "/>
  </g>
 </g>
</svg>
