<?xml version="1.0" encoding="UTF-8"?>
<!DOCTYPE svg PUBLIC "-//W3C//DTD SVG 1.1//EN" "http://www.w3.org/Graphics/SVG/1.1/DTD/svg11.dtd">
<!-- Creator: CorelDRAW X7 -->
<svg xmlns="http://www.w3.org/2000/svg" xml:space="preserve" width="250px" height="150px" version="1.1" style="shape-rendering:geometricPrecision; text-rendering:geometricPrecision; image-rendering:optimizeQuality; fill-rule:evenodd; clip-rule:evenodd"
viewBox="0 0 250 150"
 xmlns:xlink="http://www.w3.org/1999/xlink">
 <defs>
  <style type="text/css">
   <![CDATA[
    .fil0 {fill:#FEFEFE;fill-rule:nonzero}
    .fil1 {fill:#960703;fill-rule:nonzero}
   ]]>
  </style>
 </defs>
 <g id="Layer_x0020_1">
  <metadata id="CorelCorpID_0Corel-Layer"/>
  <path class="fil0" d="M34 73l1 0c1,0 2,0 3,0 0,-1 0,-1 0,-2 0,0 0,-1 0,-1 -1,-1 -2,-1 -3,-1l-1 0 0 4zm-5 11l0 -18 5 0c3,0 4,0 5,0 1,0 1,0 2,1 1,0 1,0 2,1 0,1 0,1 0,2 0,1 0,2 -1,3 0,0 -1,1 -2,1 1,0 2,1 3,2 1,0 1,2 1,3 0,1 0,2 -1,3 0,0 -1,1 -1,1 -1,1 -2,1 -3,1 -1,0 -2,0 -4,0l-6 0zm5 -3l2 0c1,0 2,-1 2,-1 1,0 1,-1 1,-1 0,-1 0,-2 -1,-2 0,0 -1,-1 -2,-1l-2 0 0 5z"/>
  <polygon id="1" class="fil0" points="46,84 46,66 52,66 52,84 "/>
  <path id="2" class="fil0" d="M76 84l-4 0 -1 -8c-1,0 -1,-1 -1,-2 0,0 0,-1 0,-2 0,1 0,2 -1,3 0,0 0,0 0,1l-2 8 -4 0 -2 -8c0,-1 0,-1 0,-1 -1,-1 -1,-2 -1,-3 0,1 0,1 0,2 0,1 0,2 0,2l-2 8 -4 0 3 -18 5 0 2 9c0,0 1,0 1,1 0,0 0,1 0,2 0,-1 0,-1 0,-1 0,-1 0,-1 1,-2l2 -9 6 0 2 18z"/>
  <path id="3" class="fil0" d="M79 78c1,1 2,2 3,2 0,1 1,1 2,1 0,0 1,0 1,-1 1,0 1,-1 1,-1 0,-1 0,-1 -1,-2 0,0 -1,0 -2,-1 -2,0 -3,-1 -4,-1 -1,-1 -1,-2 -1,-4 0,-2 0,-3 2,-4 1,-1 2,-2 4,-2 1,0 2,0 3,1 1,0 2,0 3,1l-2 4c0,-1 -1,-1 -1,-2 -1,0 -2,0 -2,0 -1,0 -1,0 -2,0 0,1 0,1 0,2 0,0 0,0 0,1 0,0 1,0 2,1l0 0c2,0 4,1 4,1 1,1 1,1 1,2 1,1 1,1 1,2 0,2 -1,4 -2,5 -1,1 -3,2 -5,2 -2,0 -3,0 -4,-1 -1,0 -2,-1 -3,-2l2 -4z"/>
  <path id="4" class="fil0" d="M93 84l0 -18 4 0c3,0 5,0 6,0 1,0 2,1 3,1 1,1 2,2 3,4 0,1 1,2 1,4 0,2 -1,3 -1,4 -1,2 -2,3 -3,4 -1,0 -2,1 -3,1 -1,0 -3,0 -5,0l-1 0 -4 0zm5 -4l1 0c2,0 3,0 4,-1 1,-1 2,-2 2,-4 0,-2 -1,-3 -2,-4 -1,-1 -2,-1 -4,-1l-1 0 0 10z"/>
  <path id="5" class="fil0" d="M112 84l0 -18 6 0c2,0 3,0 4,0 1,0 1,0 2,1 1,0 1,1 2,2 0,1 0,1 0,2 0,2 0,3 -1,4 -1,1 -2,1 -3,2l5 7 -6 0 -4 -7 0 7 -5 0zm5 -10l1 0c1,0 2,0 2,0 1,0 1,-1 1,-2 0,-1 0,-1 -1,-2 0,0 -1,0 -2,0l-1 0 0 4z"/>
  <path id="6" class="fil0" d="M128 66l5 0 0 9c0,1 0,2 0,3 0,0 1,1 1,1 0,1 0,1 1,1 0,0 1,1 2,1 0,0 1,-1 1,-1 1,0 1,0 1,-1 0,0 1,-1 1,-1 0,-1 0,-2 0,-3l0 -2 0 -7 5 0 0 10c0,2 0,3 -1,4 0,1 0,2 -1,3 0,0 -1,1 -2,1 -2,1 -3,1 -4,1 -2,0 -3,0 -5,-1 -1,0 -2,-1 -2,-1 -1,-1 -1,-2 -1,-3 -1,-1 -1,-2 -1,-4l0 -2 0 -8z"/>
  <path id="7" class="fil0" d="M169 84l-4 0 -1 -8c0,0 -1,-1 -1,-2 0,0 0,-1 0,-2 0,1 0,2 0,3 -1,0 -1,0 -1,1l-2 8 -4 0 -2 -8c0,-1 0,-1 0,-1 -1,-1 -1,-2 -1,-3 0,1 0,1 0,2 0,1 0,2 0,2l-2 8 -4 0 3 -18 5 0 2 9c1,0 1,0 1,1 0,0 0,1 0,2 0,-1 0,-1 0,-1 0,-1 1,-1 1,-2l3 -9 5 0 2 18z"/>
  <polygon id="8" class="fil0" points="186,84 170,84 179,70 171,70 171,66 187,66 178,80 186,80 "/>
  <polygon class="fil1" points="191,81 191,68 193,68 193,79 198,79 198,81 "/>
  <polygon id="1" class="fil1" points="199,81 199,68 201,68 201,81 "/>
  <path id="2" class="fil1" d="M207 82l-5 -14 2 0 3 7c0,1 0,1 0,1 0,1 0,1 0,1 0,0 1,0 1,-1 0,0 0,0 0,-1l3 -7 2 0 -6 14z"/>
  <polygon id="3" class="fil1" points="214,81 214,68 221,68 221,70 216,70 216,73 221,73 221,75 216,75 216,79 221,79 221,81 "/>
 </g>
</svg>
