<?xml version="1.0" encoding="UTF-8"?>
<!DOCTYPE svg PUBLIC "-//W3C//DTD SVG 1.1//EN" "http://www.w3.org/Graphics/SVG/1.1/DTD/svg11.dtd">
<!-- Creator: CorelDRAW X7 -->
<svg xmlns="http://www.w3.org/2000/svg" xml:space="preserve" width="1080px" height="1080px" version="1.1" style="shape-rendering:geometricPrecision; text-rendering:geometricPrecision; image-rendering:optimizeQuality; fill-rule:evenodd; clip-rule:evenodd"
viewBox="0 0 1080 1080"
 xmlns:xlink="http://www.w3.org/1999/xlink">
 <defs>
  <style type="text/css">
   <![CDATA[
    .fil0 {fill:white}
   ]]>
  </style>
 </defs>
 <g id="Layer_x0020_1">
  <metadata id="CorelCorpID_0Corel-Layer"/>
  <path class="fil0" d="M485 99l-1 150c34,2 47,-9 105,-1 29,4 60,15 85,26 53,24 92,63 121,102 102,138 62,358 -109,449 -50,27 -118,42 -185,32 -67,-9 -114,-35 -154,-68 -29,-23 -89,-95 -92,-131 15,-8 16,-6 35,-13 10,-3 25,-11 35,-12 29,49 21,60 79,104 126,96 304,36 355,-102 42,-114 -9,-214 -73,-264 -59,-45 -140,-65 -215,-38 -11,4 -24,8 -33,13 -7,4 -25,16 -29,17l-1 -246c-13,-1 -54,18 -68,25 -2,1 -3,2 -4,3l-5 4 -1 316 117 -41c7,-4 -2,-2 12,-5 28,-7 46,-20 88,-20 78,0 139,65 148,137 11,85 -50,150 -115,166 -41,10 -85,1 -116,-18l-21 -14c-8,-5 -5,-2 -9,-9 -7,-12 -30,-30 -34,-57 16,-3 60,-23 71,-23 8,17 18,32 36,40 5,2 13,6 18,8 51,13 112,-39 91,-102 -8,-25 -16,-25 -27,-37 -4,-5 -19,-11 -26,-12 -29,-9 -57,6 -82,14 -48,17 -101,39 -149,55 -30,10 -40,15 -65,24 -4,1 -8,2 -11,1 -5,-15 -3,-243 -3,-277 0,-29 2,-65 0,-93 -8,1 -16,14 -26,23 -25,21 -50,55 -68,84 -91,148 -81,333 5,470 81,129 234,214 398,206 157,-8 299,-100 370,-235 53,-101 69,-209 35,-333 -41,-152 -164,-262 -301,-304 -47,-14 -130,-25 -181,-14z"/>
 </g>
</svg>
