<?xml version="1.0" encoding="UTF-8"?>
<!DOCTYPE svg PUBLIC "-//W3C//DTD SVG 1.1//EN" "http://www.w3.org/Graphics/SVG/1.1/DTD/svg11.dtd">
<!-- Creator: CorelDRAW X7 -->
<svg xmlns="http://www.w3.org/2000/svg" xml:space="preserve" width="0.833331in" height="0.499992in" version="1.1" style="shape-rendering:geometricPrecision; text-rendering:geometricPrecision; image-rendering:optimizeQuality; fill-rule:evenodd; clip-rule:evenodd"
viewBox="0 0 833 500"
 xmlns:xlink="http://www.w3.org/1999/xlink">
 <defs>
  <style type="text/css">
   <![CDATA[
    .fil0 {fill:black;fill-rule:nonzero}
    .fil1 {fill:#960703;fill-rule:nonzero}
   ]]>
  </style>
 </defs>
 <g id="Layer_x0020_1">
  <metadata id="CorelCorpID_0Corel-Layer"/>
  <g id="_605072984">
   <path class="fil0" d="M113 244l4 0c4,0 7,-1 8,-2 2,-1 3,-2 3,-5 0,-2 -1,-4 -2,-5 -2,0 -5,-1 -9,-1l-4 0 0 13zm-15 37l0 -62 17 0c7,0 12,0 15,0 2,1 5,2 7,3 2,1 4,3 5,5 1,2 2,4 2,7 0,4 -1,7 -3,9 -2,2 -5,3 -9,5 5,0 8,1 11,4 2,3 4,7 4,11 0,4 -1,7 -2,9 -2,3 -4,5 -7,6 -2,1 -4,2 -7,2 -4,1 -9,1 -16,1l-17 0zm15 -13l6 0c4,0 7,0 9,-1 2,-1 2,-3 2,-5 0,-3 0,-5 -2,-6 -1,-1 -4,-1 -8,-1l-7 0 0 13z"/>
   <polygon id="1" class="fil0" points="155,281 155,219 172,219 172,281 "/>
   <path id="2" class="fil0" d="M255 281l-16 0 -4 -27c0,-2 0,-4 0,-6 -1,-3 -1,-5 -1,-8 0,3 -1,6 -2,10 -1,1 -1,1 -1,2l-8 29 -12 0 -8 -29c0,-1 -1,-1 -1,-2 -1,-4 -2,-7 -2,-10 0,3 -1,5 -1,7 0,3 0,5 -1,7l-3 27 -16 0 10 -62 16 0 10 32c0,0 0,0 0,1 1,3 2,5 2,7 0,-1 0,-2 1,-3 0,-2 0,-3 1,-5l9 -32 17 0 10 62z"/>
   <path id="3" class="fil0" d="M264 261c3,3 5,5 8,6 2,2 5,3 7,3 2,0 4,-1 6,-2 1,-2 2,-3 2,-5 0,-2 -1,-4 -2,-5 -1,-1 -4,-2 -9,-3 -6,-2 -10,-4 -13,-7 -2,-2 -3,-6 -3,-11 0,-6 2,-10 6,-14 4,-4 9,-6 15,-6 4,0 7,1 10,2 3,0 6,2 9,4l-6 12c-2,-2 -4,-3 -6,-4 -2,-1 -4,-1 -6,-1 -2,0 -3,1 -5,1 -1,1 -2,3 -2,4 0,2 1,3 2,4 1,1 3,2 7,3l0 0c7,2 12,4 14,6 2,2 3,4 4,6 0,2 1,4 1,7 0,6 -2,12 -7,16 -4,4 -10,6 -17,6 -5,0 -9,-1 -12,-2 -4,-2 -7,-4 -10,-7l7 -13z"/>
   <path id="4" class="fil0" d="M310 281l0 -62 13 0c9,0 16,0 20,1 4,1 8,2 11,5 4,2 7,6 9,10 2,5 3,9 3,15 0,5 -1,10 -3,15 -2,4 -5,8 -9,10 -3,2 -7,4 -10,5 -4,1 -10,1 -18,1l-3 0 -13 0zm17 -14l2 0c7,0 12,-1 15,-4 3,-3 5,-7 5,-13 0,-6 -2,-10 -5,-13 -3,-3 -8,-4 -15,-4l-2 0 0 34z"/>
   <path id="5" class="fil0" d="M374 281l0 -62 18 0c7,0 12,0 14,1 3,0 6,1 8,3 2,2 4,4 5,6 1,3 2,6 2,9 0,5 -2,9 -4,12 -2,3 -6,5 -10,6l17 25 -20 0 -14 -24 0 24 -16 0zm16 -33l3 0c4,0 7,0 8,-2 2,-1 3,-3 3,-6 0,-3 -1,-5 -3,-6 -1,-2 -4,-2 -8,-2l-3 0 0 16z"/>
   <path id="6" class="fil0" d="M427 219l17 0 0 30c0,5 0,8 1,10 0,2 0,3 1,5 0,1 1,2 3,3 2,1 4,1 6,1 2,0 4,0 6,-1 2,-1 3,-2 3,-3 1,-2 1,-3 2,-5 0,-2 0,-5 0,-10l0 -4 0 -26 17 0 0 33c0,7 -1,12 -1,15 -1,3 -3,6 -5,8 -2,3 -5,5 -8,6 -4,1 -9,2 -14,2 -5,0 -10,-1 -14,-2 -3,-1 -6,-3 -8,-6 -2,-2 -4,-5 -5,-8 0,-3 -1,-8 -1,-15l0 -7 0 -26z"/>
   <path id="7" class="fil0" d="M565 281l-16 0 -4 -27c0,-2 0,-4 0,-6 -1,-3 -1,-5 -1,-8 0,3 -1,6 -2,10 -1,1 -1,1 -1,2l-8 29 -12 0 -8 -29c0,-1 0,-1 -1,-2 -1,-4 -2,-7 -2,-10 0,3 0,5 -1,7 0,3 0,5 0,7l-4 27 -16 0 10 -62 17 0 9 32c0,0 0,0 0,1 1,3 2,5 2,7 0,-1 0,-2 1,-3 0,-2 0,-3 1,-5l9 -32 17 0 10 62z"/>
   <polygon id="8" class="fil0" points="620,281 565,281 597,232 571,232 571,219 624,219 592,268 620,268 "/>
   <polygon class="fil1" points="637,270 637,228 644,228 644,264 659,264 659,270 "/>
   <polygon id="1" class="fil1" points="663,270 663,228 670,228 670,270 "/>
   <path id="2" class="fil1" d="M691 272l-19 -44 8 0 9 23c0,1 1,2 1,3 1,1 1,2 1,3 0,-1 1,-2 1,-3 0,-1 1,-2 1,-3l10 -23 7 0 -19 44z"/>
   <polygon id="3" class="fil1" points="712,270 712,228 736,228 736,234 719,234 719,245 736,245 736,250 719,250 719,264 736,264 736,270 "/>
  </g>
 </g>
</svg>
