<?xml version="1.0" encoding="UTF-8"?>
<!DOCTYPE svg PUBLIC "-//W3C//DTD SVG 1.1//EN" "http://www.w3.org/Graphics/SVG/1.1/DTD/svg11.dtd">
<!-- Creator: CorelDRAW X7 -->
<svg xmlns="http://www.w3.org/2000/svg" xml:space="preserve" width="0.833331in" height="0.833331in" version="1.1" style="shape-rendering:geometricPrecision; text-rendering:geometricPrecision; image-rendering:optimizeQuality; fill-rule:evenodd; clip-rule:evenodd"
viewBox="0 0 833 833"
 xmlns:xlink="http://www.w3.org/1999/xlink">
 <defs>
  <style type="text/css">
   <![CDATA[
    .fil0 {fill:#960703}
   ]]>
  </style>
 </defs>
 <g id="Layer_x0020_1">
  <metadata id="CorelCorpID_0Corel-Layer"/>
  <path class="fil0" d="M369 34l-1 130c30,2 41,-8 91,-1 26,4 52,13 74,23 46,20 80,54 105,88 89,120 54,311 -94,390 -44,23 -103,36 -161,28 -58,-8 -99,-31 -134,-59 -25,-20 -78,-82 -80,-114 14,-7 14,-5 31,-11 9,-3 21,-9 30,-10 25,42 18,52 69,90 109,84 263,31 308,-89 37,-99 -8,-186 -64,-229 -51,-40 -121,-56 -187,-33 -9,3 -20,7 -28,12 -6,3 -21,13 -25,14l-1 -213c-12,-1 -47,15 -59,21 -2,1 -3,1 -4,2l-4 4 -1 275 101 -36c7,-4 0,-2 11,-5 24,-5 40,-17 77,-17 68,0 121,57 129,119 9,74 -44,130 -101,144 -35,9 -73,1 -100,-15l-19 -13c-7,-3 -4,-1 -8,-7 -6,-10 -26,-26 -29,-49 14,-4 52,-21 61,-21 8,15 17,28 32,35 4,2 11,5 15,7 45,11 98,-34 80,-89 -7,-21 -14,-22 -24,-32 -3,-4 -17,-9 -22,-11 -25,-7 -50,6 -71,13 -42,15 -88,34 -130,47 -26,9 -35,13 -56,22 -3,1 -7,2 -10,1 -4,-13 -3,-211 -3,-241 1,-25 2,-56 1,-81 -8,1 -14,12 -23,20 -22,19 -44,48 -59,73 -79,129 -71,289 4,408 71,113 203,186 346,179 137,-7 259,-87 321,-204 46,-87 60,-182 31,-289 -36,-132 -143,-228 -262,-264 -41,-12 -112,-22 -157,-12z"/>
 </g>
</svg>
